<svg width="24" height="24" viewBox="0 0 24 24" fill="none" xmlns="http://www.w3.org/2000/svg">
<path fill-rule="evenodd" clip-rule="evenodd" d="M12.0005 1.99896C9.28448 1.99896 8.94363 2.01084 7.87689 2.05938C6.81224 2.10814 6.08553 2.27669 5.44966 2.524C4.79191 2.77943 4.23396 3.12112 3.67809 3.67719C3.1218 4.23306 2.78011 4.79101 2.52385 5.44855C2.27592 6.08463 2.10715 6.81155 2.05924 7.87579C2.01152 8.94252 1.99902 9.28359 1.99902 11.9996C1.99902 14.7156 2.01111 15.0554 2.05944 16.1221C2.10841 17.1868 2.27696 17.9135 2.52406 18.5494C2.7797 19.2071 3.12139 19.7651 3.67746 20.3209C4.23312 20.8772 4.79107 21.2197 5.44841 21.4752C6.0847 21.7225 6.81162 21.891 7.87606 21.9398C8.94279 21.9883 9.28344 22.0002 11.9992 22.0002C14.7154 22.0002 15.0553 21.9883 16.122 21.9398C17.1866 21.891 17.9142 21.7225 18.5505 21.4752C19.208 21.2197 19.7651 20.8772 20.3208 20.3209C20.8771 19.7651 21.2188 19.2071 21.475 18.5496C21.7209 17.9135 21.8896 17.1866 21.9396 16.1223C21.9876 15.0556 22.0001 14.7156 22.0001 11.9996C22.0001 9.28359 21.9876 8.94273 21.9396 7.876C21.8896 6.81135 21.7209 6.08463 21.475 5.44876C21.2188 4.79101 20.8771 4.23306 20.3208 3.67719C19.7645 3.12091 19.2082 2.77922 18.5499 2.524C17.9123 2.27669 17.1852 2.10814 16.1205 2.05938C15.0538 2.01084 14.7142 1.99896 11.9974 1.99896H12.0005ZM11.1033 3.80116C11.2775 3.80089 11.4648 3.80097 11.667 3.80106H11.6672L12.0005 3.80116C14.6706 3.80116 14.9871 3.81074 16.0416 3.85866C17.0166 3.90325 17.5458 4.06618 17.8984 4.20306C18.365 4.38432 18.6978 4.601 19.0476 4.95102C19.3976 5.30104 19.6143 5.6344 19.796 6.10109C19.9329 6.4532 20.096 6.9824 20.1404 7.95746C20.1883 9.01169 20.1987 9.32838 20.1987 11.9973C20.1987 14.6662 20.1883 14.9829 20.1404 16.0371C20.0958 17.0122 19.9329 17.5414 19.796 17.8935C19.6147 18.3602 19.3976 18.6925 19.0476 19.0423C18.6976 19.3923 18.3653 19.609 17.8984 19.7903C17.5462 19.9278 17.0166 20.0903 16.0416 20.1349C14.9873 20.1828 14.6706 20.1932 12.0005 20.1932C9.33011 20.1932 9.01363 20.1828 7.9594 20.1349C6.98434 20.0899 6.45514 19.927 6.10241 19.7901C5.63571 19.6088 5.30236 19.3921 4.95233 19.0421C4.60231 18.6921 4.38563 18.3596 4.20395 17.8927C4.06707 17.5406 3.90393 17.0114 3.85956 16.0363C3.81164 14.9821 3.80205 14.6654 3.80205 11.9948C3.80205 9.32421 3.81164 9.00919 3.85956 7.95496C3.90414 6.9799 4.06707 6.4507 4.20395 6.09818C4.38521 5.63148 4.60231 5.29813 4.95233 4.94811C5.30236 4.59808 5.63571 4.3814 6.10241 4.19973C6.45493 4.06222 6.98434 3.89971 7.9594 3.85491C8.88195 3.81324 9.23948 3.80074 11.1033 3.79866V3.80116ZM17.3387 5.46168C16.6762 5.46168 16.1387 5.99859 16.1387 6.66134C16.1387 7.32388 16.6762 7.86141 17.3387 7.86141C18.0013 7.86141 18.5388 7.32388 18.5388 6.66134C18.5388 5.9988 18.0013 5.46126 17.3387 5.46126V5.46168ZM6.86474 11.9996C6.86474 9.16344 9.16415 6.86396 12.0003 6.86385C14.8365 6.86385 17.1354 9.16337 17.1354 11.9996C17.1354 14.8358 14.8367 17.1343 12.0005 17.1343C9.16426 17.1343 6.86474 14.8358 6.86474 11.9996ZM15.334 11.9996C15.334 10.1584 13.8414 8.66605 12.0005 8.66605C10.1593 8.66605 8.66694 10.1584 8.66694 11.9996C8.66694 13.8405 10.1593 15.3331 12.0005 15.3331C13.8414 15.3331 15.334 13.8405 15.334 11.9996Z" fill="#808080"/>
</svg>
