<svg width="132" height="24" viewBox="0 0 132 24" fill="none" xmlns="http://www.w3.org/2000/svg">
<g clip-path="url(#clip0_22_1646)">
<path fill-rule="evenodd" clip-rule="evenodd" d="M10.2297 18.4595C5.68458 18.4595 2 14.7749 2 10.2297C2 5.68458 5.68458 2 10.2297 2C14.7749 2 18.4595 5.68458 18.4595 10.2297C18.4595 12.1957 17.7701 14.0006 16.62 15.416L22.7506 21.5467C23.0831 21.8791 23.0831 22.4182 22.7506 22.7506C22.4182 23.0831 21.8791 23.0831 21.5467 22.7506L15.416 16.62C14.0006 17.7701 12.1957 18.4595 10.2297 18.4595ZM10.2297 16.7568C13.8345 16.7568 16.7568 13.8345 16.7568 10.2297C16.7568 6.62495 13.8345 3.7027 10.2297 3.7027C6.62495 3.7027 3.7027 6.62495 3.7027 10.2297C3.7027 13.8345 6.62495 16.7568 10.2297 16.7568Z" fill="#2A2A2A"/>
<path fill-rule="evenodd" clip-rule="evenodd" d="M59.6864 4.14285L59.3548 2.78357C59.0966 1.73512 58.1715 0.999938 57.1105 1H56V2.57142H57.1105C57.4735 2.56065 57.7947 2.80935 57.8817 3.16856L60.6272 14.5457L60.9126 15.7164C61.1728 16.7734 62.1103 17.5109 63.1799 17.4999H73.7378V15.9285H63.1799C62.8169 15.9393 62.4957 15.6906 62.4087 15.3314L62.3162 14.9385L73.7378 12.1964C74.5822 11.9964 75.246 11.3322 75.4576 10.4757L77 4.14285H59.6864ZM73.9923 10.0985C73.9209 10.3855 73.6973 10.6072 73.4139 10.6721L61.9614 13.4142L60.072 5.71427H75.0643L73.9923 10.0985ZM59.856 20.6428C59.856 19.341 60.8919 18.2857 62.1697 18.2857C63.4474 18.2857 64.4833 19.341 64.4833 20.6428C64.4833 21.9446 63.4474 22.9999 62.1697 22.9999C60.8919 22.9999 59.856 21.9446 59.856 20.6428ZM61.3985 20.6428C61.3985 21.0767 61.7437 21.4285 62.1697 21.4285C62.5956 21.4285 62.9409 21.0767 62.9409 20.6428C62.9409 20.2089 62.5956 19.8571 62.1697 19.8571C61.7437 19.8571 61.3985 20.2089 61.3985 20.6428ZM69.2867 19.7408C69.6448 18.86 70.4884 18.2857 71.4242 18.2857C72.7019 18.2857 73.7378 19.341 73.7378 20.6428C73.7378 21.5962 73.1741 22.4557 72.3096 22.8205C71.445 23.1853 70.4499 22.9837 69.7882 22.3095C69.1265 21.6354 68.9285 20.6216 69.2867 19.7408ZM70.653 20.6428C70.653 21.0767 70.9982 21.4285 71.4242 21.4285C71.8501 21.4285 72.1954 21.0767 72.1954 20.6428C72.1954 20.2089 71.8501 19.8571 71.4242 19.8571C70.9982 19.8571 70.653 20.2089 70.653 20.6428Z" fill="#2A2A2A"/>
<path d="M118.5 1.5C114.75 1.5 110.25 5.25 110.25 11.25C110.25 17.25 114.75 21.75 120.75 21.75C126.75 21.75 130.5 17.25 130.5 13.5C122.25 18.75 113.25 9.75 118.5 1.5Z" stroke="#2A2A2A" stroke-width="1.5" stroke-linecap="round" stroke-linejoin="round"/>
</g>
<defs>
<clipPath id="clip0_22_1646">
<rect width="132" height="24" fill="white"/>
</clipPath>
</defs>
</svg>
